<svg width="720" height="1080" viewBox="0 0 720 1080" fill="none" xmlns="http://www.w3.org/2000/svg">
    <path d="M0 90C0 101.819 2.32791 113.522 6.85085 124.442C11.3738 135.361 18.0031 145.282 26.3604 153.64C34.7177 161.997 44.6392 168.626 55.5585 173.149C66.4778 177.672 78.181 180 90 180L90 90L0 90Z" fill="white"/>
    <path d="M270 0C281.819 0 293.522 2.32791 304.442 6.85085C315.361 11.3738 325.282 18.0031 333.64 26.3604C341.997 34.7177 348.626 44.6392 353.149 55.5585C357.672 66.4778 360 78.181 360 90C360 101.819 357.672 113.522 353.149 124.442C348.626 135.361 341.997 145.282 333.64 153.64C325.282 161.997 315.361 168.626 304.442 173.149C293.522 177.672 281.819 180 270 180L270 90V0Z" fill="white"/>
    <path d="M450 180C432.2 180 414.799 174.722 399.999 164.832C385.198 154.943 373.663 140.887 366.851 124.442C360.039 107.996 358.257 89.9002 361.729 72.4419C365.202 54.9836 373.774 38.9471 386.36 26.3604C398.947 13.7737 414.984 5.20199 432.442 1.72932C449.9 -1.74335 467.996 0.0389552 484.442 6.85084C500.887 13.6627 514.943 25.1983 524.832 39.9987C534.722 54.7991 540 72.1997 540 90L450 90V180Z" fill="white"/>
    <path d="M630 0C641.819 0 653.522 2.32791 664.442 6.85085C675.361 11.3738 685.282 18.0031 693.64 26.3604C701.997 34.7177 708.626 44.6392 713.149 55.5585C717.672 66.4778 720 78.181 720 90L630 90V0Z" fill="white"/>
    <path d="M180 270C180 281.819 177.672 293.522 173.149 304.442C168.626 315.361 161.997 325.282 153.64 333.64C145.282 341.997 135.361 348.626 124.442 353.149C113.522 357.672 101.819 360 90 360L90 270H180Z" fill="white"/>
    <path d="M360 270C360 258.181 357.672 246.478 353.149 235.558C348.626 224.639 341.997 214.718 333.64 206.36C325.282 198.003 315.361 191.374 304.442 186.851C293.522 182.328 281.819 180 270 180C258.181 180 246.478 182.328 235.558 186.851C224.639 191.374 214.718 198.003 206.36 206.36C198.003 214.718 191.374 224.639 186.851 235.558C182.328 246.478 180 258.181 180 270L270 270L360 270Z" fill="white"/>
    <path d="M360 270C360 281.819 362.328 293.522 366.851 304.442C371.374 315.361 378.003 325.282 386.36 333.64C394.718 341.997 404.639 348.626 415.558 353.149C426.478 357.672 438.181 360 450 360L450 270H360Z" fill="white"/>
    <path d="M540 270C540 258.181 542.328 246.478 546.851 235.558C551.374 224.639 558.003 214.718 566.36 206.36C574.718 198.003 584.639 191.374 595.558 186.851C606.478 182.328 618.181 180 630 180C641.819 180 653.522 182.328 664.442 186.851C675.361 191.374 685.282 198.003 693.64 206.36C701.997 214.718 708.626 224.639 713.149 235.558C717.672 246.478 720 258.181 720 270L630 270H540Z" fill="white"/>
    <path d="M90 360C78.181 360 66.4778 362.328 55.5585 366.851C44.6392 371.374 34.7177 378.003 26.3604 386.36C18.0031 394.718 11.3738 404.639 6.85084 415.558C2.32792 426.478 -5.16623e-07 438.181 0 450L90 450L90 360Z" fill="white"/>
    <path d="M270 540C281.819 540 293.522 537.672 304.442 533.149C315.361 528.626 325.282 521.997 333.64 513.64C341.997 505.282 348.626 495.361 353.149 484.442C357.672 473.522 360 461.819 360 450C360 438.181 357.672 426.478 353.149 415.558C348.626 404.639 341.997 394.718 333.64 386.36C325.282 378.003 315.361 371.374 304.442 366.851C293.522 362.328 281.819 360 270 360L270 450V540Z" fill="white"/>
    <path d="M450 360C461.819 360 473.522 362.328 484.442 366.851C495.361 371.374 505.282 378.003 513.64 386.36C521.997 394.718 528.626 404.639 533.149 415.558C537.672 426.478 540 438.181 540 450C540 461.819 537.672 473.522 533.149 484.442C528.626 495.361 521.997 505.282 513.64 513.64C505.282 521.997 495.361 528.626 484.442 533.149C473.522 537.672 461.819 540 450 540L450 450V360Z" fill="white"/>
    <path d="M720 450C720 461.819 717.672 473.522 713.149 484.442C708.626 495.361 701.997 505.282 693.64 513.64C685.282 521.997 675.361 528.626 664.442 533.149C653.522 537.672 641.819 540 630 540L630 450H720Z" fill="white"/>
    <path d="M360 630C360 641.819 357.672 653.522 353.149 664.442C348.626 675.361 341.997 685.282 333.64 693.64C325.282 701.997 315.361 708.626 304.442 713.149C293.522 717.672 281.819 720 270 720C258.181 720 246.478 717.672 235.558 713.149C224.639 708.626 214.718 701.997 206.36 693.64C198.003 685.282 191.374 675.361 186.851 664.442C182.328 653.522 180 641.819 180 630L270 630H360Z" fill="white"/>
    <path d="M450 540C438.181 540 426.478 542.328 415.558 546.851C404.639 551.374 394.718 558.003 386.36 566.36C378.003 574.718 371.374 584.639 366.851 595.558C362.328 606.478 360 618.181 360 630L450 630V540Z" fill="white"/>
    <path d="M630 720C647.8 720 665.201 714.722 680.001 704.832C694.802 694.943 706.337 680.887 713.149 664.442C719.961 647.996 721.743 629.9 718.271 612.442C714.798 594.984 706.226 578.947 693.64 566.36C681.053 553.774 665.016 545.202 647.558 541.729C630.1 538.257 612.004 540.039 595.558 546.851C579.113 553.663 565.057 565.198 555.168 579.999C545.278 594.799 540 612.2 540 630H630V720Z" fill="white"/>
    <path d="M90 900C78.181 900 66.4778 897.672 55.5585 893.149C44.6392 888.626 34.7177 881.997 26.3604 873.64C18.0031 865.282 11.3738 855.361 6.85084 844.442C2.32792 833.522 -5.16623e-07 821.819 0 810C5.16624e-07 798.181 2.32792 786.478 6.85084 775.558C11.3738 764.639 18.0031 754.718 26.3604 746.36C34.7177 738.003 44.6392 731.374 55.5585 726.851C66.4778 722.328 78.181 720 90 720L90 810L90 900Z" fill="white"/>
    <path d="M180 810C180 821.819 182.328 833.522 186.851 844.442C191.374 855.361 198.003 865.282 206.36 873.64C214.718 881.997 224.639 888.626 235.558 893.149C246.478 897.672 258.181 900 270 900L270 810H180Z" fill="white"/>
    <path d="M450 720C467.8 720 485.201 725.278 500.001 735.168C514.802 745.057 526.337 759.113 533.149 775.558C539.961 792.004 541.743 810.1 538.271 827.558C534.798 845.016 526.226 861.053 513.64 873.64C501.053 886.226 485.016 894.798 467.558 898.271C450.1 901.743 432.004 899.961 415.558 893.149C399.113 886.337 385.057 874.802 375.168 860.001C365.278 845.201 360 827.8 360 810H450V720Z" fill="white"/>
    <path d="M540 810C540 821.819 542.328 833.522 546.851 844.442C551.374 855.361 558.003 865.282 566.36 873.64C574.718 881.997 584.639 888.626 595.558 893.149C606.478 897.672 618.181 900 630 900C641.819 900 653.522 897.672 664.442 893.149C675.361 888.626 685.282 881.997 693.64 873.64C701.997 865.282 708.626 855.361 713.149 844.442C717.672 833.522 720 821.819 720 810L630 810H540Z" fill="white"/>
    <path d="M90 1080C101.819 1080 113.522 1077.67 124.442 1073.15C135.361 1068.63 145.282 1062 153.64 1053.64C161.997 1045.28 168.626 1035.36 173.149 1024.44C177.672 1013.52 180 1001.82 180 990C180 978.181 177.672 966.478 173.149 955.558C168.626 944.639 161.997 934.718 153.64 926.36C145.282 918.003 135.361 911.374 124.442 906.851C113.522 902.328 101.819 900 90 900L90 990L90 1080Z" fill="white"/>
    <path d="M180 990C180 1001.82 182.328 1013.52 186.851 1024.44C191.374 1035.36 198.003 1045.28 206.36 1053.64C214.718 1062 224.639 1068.63 235.558 1073.15C246.478 1077.67 258.181 1080 270 1080C281.819 1080 293.522 1077.67 304.442 1073.15C315.361 1068.63 325.282 1062 333.64 1053.64C341.997 1045.28 348.626 1035.36 353.149 1024.44C357.672 1013.52 360 1001.82 360 990L270 990H180Z" fill="white"/>
    <path d="M540 990C540 1001.82 537.672 1013.52 533.149 1024.44C528.626 1035.36 521.997 1045.28 513.64 1053.64C505.282 1062 495.361 1068.63 484.442 1073.15C473.522 1077.67 461.819 1080 450 1080L450 990H540Z" fill="white"/>
    <path d="M90 540C101.819 540 113.522 542.328 124.442 546.851C135.361 551.374 145.282 558.003 153.64 566.36C161.997 574.718 168.626 584.639 173.149 595.558C177.672 606.478 180 618.181 180 630C180 641.819 177.672 653.522 173.149 664.442C168.626 675.361 161.997 685.282 153.64 693.64C145.282 701.997 135.361 708.626 124.442 713.149C113.522 717.672 101.819 720 90 720L90 630L90 540Z" fill="white"/>
    <path d="M720 990C720 978.181 717.672 966.478 713.149 955.558C708.626 944.639 701.997 934.718 693.64 926.36C685.282 918.003 675.361 911.374 664.442 906.851C653.522 902.328 641.819 900 630 900C618.181 900 606.478 902.328 595.558 906.851C584.639 911.374 574.718 918.003 566.36 926.36C558.003 934.718 551.374 944.639 546.851 955.558C542.328 966.478 540 978.181 540 990L630 990H720Z" fill="white"/>
</svg>
