<?xml version="1.0" encoding="utf-8"?>
<!-- Generator: Adobe Illustrator 23.0.6, SVG Export Plug-In . SVG Version: 6.00 Build 0)  -->
<svg version="1.1" id="Слой_1" xmlns="http://www.w3.org/2000/svg" xmlns:xlink="http://www.w3.org/1999/xlink" x="0px" y="0px"
	 width="113.5" height="40.7" viewBox="0 0 113.7 40.7" style="enable-background:new 0 0 113.7 40.7;" xml:space="preserve">
<style type="text/css">
	.st0{display:none;opacity:0.5;fill:none;stroke:#FF0B0B;stroke-width:150;stroke-miterlimit:10;enable-background:new    ;}
	.st1{fill:#FFFFFF;}
</style>
<rect x="-5557.4" y="-1737.6" class="st0" width="1920" height="1079.5"/>
<rect x="-5557.4" y="-637.7" class="st0" width="1920" height="1079.5"/>
<rect x="-3617.3" y="-1737.6" class="st0" width="1920" height="1079.5"/>
<rect x="-3617.3" y="-637.7" class="st0" width="1920" height="1079.5"/>
<g>
	<path class="st1" d="M93.5,0.4c-11,0-19.9,8.9-19.9,19.9s8.9,19.9,19.9,19.9s19.9-8.9,19.9-19.9S104.5,0.4,93.5,0.4z M95.9,25.3
		c-0.7,0-1.3-0.4-1.6-1l-2.8-5.5c-0.7-1.3-1.7-1.3-2.3,0l-2,4l-1.8,3.6L84,29c-0.3,0.6-0.9,1-1.6,1c-1.3,0-2.2-1.4-1.6-2.6l7.9-15.8
		c0.7-1.3,2.5-1.3,3.2,0l5.6,11.2C98.1,24,97.3,25.3,95.9,25.3L95.9,25.3z M98.2,30L98.2,30c-0.7,0-1.3-0.4-1.6-1l0,0
		c-0.6-1.2,0.3-2.6,1.6-2.6l0,0c0.7,0,1.3,0.4,1.6,1l0,0C100.4,28.6,99.5,30,98.2,30z M104.4,10.6L104.4,10.6c0.7,0,1.4,0.4,1.8,1.1
		l0,0c0.7,1.3-0.3,2.8-1.8,2.8l0,0c-0.7,0-1.4-0.4-1.8-1.1l0,0C102,12.1,102.9,10.6,104.4,10.6z M106.4,28c0,0.5-0.2,0.9-0.6,1.3
		c-1.2,1.1-3.4,0.3-3.4-1.3V17.8c0-1.6,2.1-2.4,3.4-1.3c0.4,0.3,0.6,0.8,0.6,1.3L106.4,28L106.4,28z"/>
	<g>
		<path class="st1" d="M5.1,28.8c-1.5-0.8-2.6-1.9-3.5-3.3c-0.8-1.4-1.3-3-1.3-4.8c0-1.8,0.4-3.4,1.3-4.8c0.9-1.4,2-2.5,3.5-3.3
			c1.5-0.8,3.1-1.2,4.9-1.2c1.5,0,2.8,0.3,4,0.8c1.2,0.5,2.2,1.3,3.1,2.2l-2.2,2c-1.3-1.4-2.9-2.1-4.8-2.1c-1.2,0-2.3,0.3-3.3,0.8
			c-1,0.5-1.7,1.3-2.3,2.3s-0.8,2.1-0.8,3.3c0,1.2,0.3,2.3,0.8,3.3c0.6,1,1.3,1.7,2.3,2.3c1,0.5,2.1,0.8,3.3,0.8
			c1.9,0,3.5-0.7,4.8-2.1l2.2,2.1c-0.9,1-1.9,1.7-3.1,2.2s-2.6,0.8-4,0.8C8.2,30,6.6,29.6,5.1,28.8z"/>
		<path class="st1" d="M22,29c-1.1-0.6-2-1.4-2.6-2.5c-0.6-1.1-0.9-2.3-0.9-3.6s0.3-2.6,0.9-3.6c0.6-1.1,1.5-1.9,2.6-2.5
			c1.1-0.6,2.4-0.9,3.8-0.9c1.4,0,2.7,0.3,3.8,0.9s2,1.4,2.6,2.5c0.6,1.1,0.9,2.3,0.9,3.6s-0.3,2.6-0.9,3.6
			c-0.6,1.1-1.5,1.9-2.6,2.5c-1.1,0.6-2.4,0.9-3.8,0.9C24.4,30,23.1,29.6,22,29z M28.7,26c0.8-0.8,1.2-1.8,1.2-3.1s-0.4-2.3-1.2-3.1
			C28,19,27,18.6,25.8,18.6c-1.2,0-2.2,0.4-2.9,1.2c-0.8,0.8-1.1,1.8-1.1,3.1s0.4,2.3,1.1,3.1s1.7,1.2,2.9,1.2S28,26.8,28.7,26z"/>
		<path class="st1" d="M49.7,10.7v19.1h-3.1V28c-0.5,0.7-1.2,1.1-2,1.5c-0.8,0.3-1.7,0.5-2.6,0.5c-1.3,0-2.5-0.3-3.6-0.9
			s-1.9-1.4-2.5-2.5c-0.6-1.1-0.9-2.3-0.9-3.7s0.3-2.6,0.9-3.7c0.6-1.1,1.4-1.9,2.5-2.5c1.1-0.6,2.2-0.9,3.6-0.9
			c0.9,0,1.7,0.2,2.5,0.5c0.7,0.3,1.4,0.8,1.9,1.4v-7H49.7z M44.5,26.6c0.6-0.3,1.1-0.9,1.5-1.5c0.4-0.6,0.5-1.4,0.5-2.3
			c0-0.9-0.2-1.6-0.5-2.3c-0.4-0.6-0.9-1.1-1.5-1.5c-0.6-0.3-1.3-0.5-2.1-0.5c-0.8,0-1.5,0.2-2.1,0.5c-0.6,0.3-1.1,0.9-1.5,1.5
			c-0.4,0.6-0.5,1.4-0.5,2.3c0,0.9,0.2,1.6,0.5,2.3c0.4,0.6,0.9,1.1,1.5,1.5c0.6,0.3,1.3,0.5,2.1,0.5C43.2,27.2,43.9,27,44.5,26.6z"
			/>
		<path class="st1" d="M54.1,13.2c-0.4-0.4-0.6-0.8-0.6-1.4c0-0.6,0.2-1,0.6-1.4s0.9-0.6,1.5-0.6c0.6,0,1.1,0.2,1.5,0.5
			s0.6,0.8,0.6,1.3c0,0.6-0.2,1-0.6,1.4c-0.4,0.4-0.9,0.6-1.5,0.6C54.9,13.8,54.5,13.6,54.1,13.2z M53.9,16h3.2v13.7h-3.2V16z"/>
		<path class="st1" d="M64.9,15.3v0.8h3.8v2.6H65v11.1h-3.2V18.7h-2.3v-2.6h2.3v-0.9c0-1.5,0.4-2.6,1.3-3.5c0.9-0.9,2.1-1.3,3.6-1.3
			c1.2,0,2.2,0.2,2.9,0.7l-0.9,2.4c-0.6-0.4-1.1-0.6-1.8-0.6C65.6,13.1,64.9,13.8,64.9,15.3z"/>
	</g>
</g>
</svg>
