<?xml version="1.0" encoding="utf-8"?>
<!-- Generator: Adobe Illustrator 23.0.6, SVG Export Plug-In . SVG Version: 6.00 Build 0)  -->
<svg version="1.1" id="Слой_1" xmlns="http://www.w3.org/2000/svg" xmlns:xlink="http://www.w3.org/1999/xlink" x="0px" y="0px"
	 width="113.5" height="40.7" viewBox="0 0 113.5 40.7" style="enable-background:new 0 0 113.5 40.7;" xml:space="preserve">
<style type="text/css">
	.st0{display:none;opacity:0.5;fill:none;stroke:#FF0B0B;stroke-width:150;stroke-miterlimit:10;enable-background:new    ;}
	.st1{fill:#42A3FF;}
</style>
<rect x="-5083" y="-1737.5" class="st0" width="1920" height="1079.5"/>
<rect x="-5083" y="-637.7" class="st0" width="1920" height="1079.5"/>
<rect x="-3142.9" y="-1737.5" class="st0" width="1920" height="1079.5"/>
<rect x="-3142.9" y="-637.7" class="st0" width="1920" height="1079.5"/>
<g>
	<path class="st1" d="M93.2,0.5c-11,0-19.9,8.9-19.9,19.9s8.9,19.9,19.9,19.9s19.9-8.9,19.9-19.9S104.2,0.5,93.2,0.5z M95.6,25.5
		c-0.7,0-1.3-0.4-1.6-1L91.2,19c-0.7-1.3-1.7-1.3-2.3,0l-2,4l-1.8,3.6l-1.3,2.6c-0.3,0.6-0.9,1-1.6,1c-1.3,0-2.2-1.4-1.6-2.6
		l7.9-15.8c0.7-1.3,2.5-1.3,3.2,0l5.6,11.2C97.8,24.1,97,25.5,95.6,25.5L95.6,25.5L95.6,25.5z M97.9,30.1L97.9,30.1
		c-0.7,0-1.3-0.4-1.6-1l0,0c-0.6-1.2,0.3-2.6,1.6-2.6l0,0c0.7,0,1.3,0.4,1.6,1l0,0C100.1,28.7,99.3,30.1,97.9,30.1z M104.1,10.7
		L104.1,10.7c0.7,0,1.4,0.4,1.8,1.1l0,0c0.7,1.3-0.3,2.8-1.8,2.8l0,0c-0.7,0-1.4-0.4-1.8-1.1l0,0C101.7,12.2,102.6,10.7,104.1,10.7z
		 M106.1,28.1c0,0.5-0.2,0.9-0.6,1.3c-1.2,1.1-3.4,0.3-3.4-1.3V17.8c0-1.6,2.1-2.4,3.4-1.3c0.4,0.3,0.6,0.8,0.6,1.3L106.1,28.1
		L106.1,28.1z"/>
	<g>
		<path class="st1" d="M4.9,28.9c-1.5-0.8-2.6-1.9-3.5-3.3c-0.8-1.4-1.3-3-1.3-4.8c0-1.8,0.4-3.4,1.3-4.8c0.9-1.4,2-2.5,3.5-3.3
			C6.3,12,8,11.6,9.8,11.6c1.5,0,2.8,0.3,4,0.8c1.2,0.5,2.2,1.3,3.1,2.2l-2.2,2c-1.3-1.4-2.9-2.1-4.8-2.1c-1.2,0-2.3,0.3-3.3,0.8
			c-1,0.5-1.7,1.3-2.3,2.3c-0.6,1-0.8,2.1-0.8,3.3s0.3,2.3,0.8,3.3c0.6,1,1.3,1.7,2.3,2.3c1,0.5,2.1,0.8,3.3,0.8
			c1.9,0,3.5-0.7,4.8-2.1l2.2,2.1c-0.9,1-1.9,1.7-3.1,2.2s-2.6,0.8-4,0.8C8,30.1,6.3,29.7,4.9,28.9z"/>
		<path class="st1" d="M21.8,29.2c-1.1-0.6-2-1.4-2.6-2.5c-0.6-1.1-0.9-2.3-0.9-3.6c0-1.4,0.3-2.6,0.9-3.6c0.6-1.1,1.5-1.9,2.6-2.5
			c1.1-0.6,2.4-0.9,3.8-0.9c1.4,0,2.7,0.3,3.8,0.9c1.1,0.6,2,1.4,2.6,2.5c0.6,1.1,0.9,2.3,0.9,3.6c0,1.4-0.3,2.6-0.9,3.6
			c-0.6,1.1-1.5,1.9-2.6,2.5c-1.1,0.6-2.4,0.9-3.8,0.9C24.1,30,22.9,29.7,21.8,29.2z M28.5,26.1c0.8-0.8,1.2-1.8,1.2-3.1
			s-0.4-2.3-1.2-3.1s-1.8-1.2-2.9-1.2c-1.2,0-2.2,0.4-2.9,1.2c-0.8,0.8-1.1,1.8-1.1,3.1s0.4,2.3,1.1,3.1c0.8,0.8,1.7,1.2,2.9,1.2
			S27.7,26.9,28.5,26.1z"/>
		<path class="st1" d="M49.4,10.8v19.1h-3.1v-1.8c-0.5,0.7-1.2,1.1-2,1.5c-0.8,0.3-1.7,0.5-2.6,0.5c-1.3,0-2.5-0.3-3.6-0.9
			c-1.1-0.6-1.9-1.4-2.5-2.5c-0.6-1.1-0.9-2.3-0.9-3.7s0.3-2.6,0.9-3.7c0.6-1.1,1.4-1.9,2.5-2.5c1.1-0.6,2.2-0.9,3.6-0.9
			c0.9,0,1.7,0.2,2.5,0.5c0.7,0.3,1.4,0.8,1.9,1.4v-7H49.4z M44.2,26.8c0.6-0.3,1.1-0.9,1.5-1.5c0.4-0.6,0.5-1.4,0.5-2.3
			s-0.2-1.6-0.5-2.3c-0.4-0.6-0.9-1.1-1.5-1.5c-0.6-0.3-1.3-0.5-2.1-0.5c-0.8,0-1.5,0.2-2.1,0.5c-0.6,0.3-1.1,0.9-1.5,1.5
			c-0.4,0.6-0.5,1.4-0.5,2.3s0.2,1.6,0.5,2.3c0.4,0.6,0.9,1.1,1.5,1.5c0.6,0.3,1.3,0.5,2.1,0.5C42.9,27.3,43.6,27.1,44.2,26.8z"/>
		<path class="st1" d="M53.8,13.3c-0.4-0.4-0.6-0.8-0.6-1.4c0-0.6,0.2-1,0.6-1.4c0.4-0.4,0.9-0.6,1.5-0.6c0.6,0,1.1,0.2,1.5,0.5
			c0.4,0.3,0.6,0.8,0.6,1.3c0,0.6-0.2,1-0.6,1.4c-0.4,0.4-0.9,0.6-1.5,0.6C54.7,13.8,54.2,13.7,53.8,13.3z M53.6,16.1h3.2v13.7h-3.2
			V16.1z"/>
		<path class="st1" d="M64.6,15.4v0.8h3.8v2.6h-3.7v11.1h-3.2V18.8h-2.3v-2.6h2.3v-0.9c0-1.5,0.4-2.6,1.3-3.5
			c0.9-0.9,2.1-1.3,3.6-1.3c1.2,0,2.2,0.2,2.9,0.7l-0.9,2.4c-0.6-0.4-1.1-0.6-1.8-0.6C65.3,13.2,64.6,13.9,64.6,15.4z"/>
	</g>
</g>
</svg>
