<svg width="37" height="198" viewBox="0 0 37 198" fill="none" xmlns="http://www.w3.org/2000/svg">
    <path d="M36.4 183.25C36.4 172.85 31.2 167.75 25.1 167.75C12.2 167.75 16.2 187.6 10.85 187.6C9.1 187.6 7.7 186.1 7.7 181.95C7.7 178.9 8.6 175.6 10.4 172.25L3.05 169.2C1.05 172.65 0 177.35 0 181.9C0 192.3 5.1 197.4 11.35 197.4C24.35 197.4 20.3 177.5 25.85 177.5C27.55 177.5 28.7 179.1 28.7 183.2C28.7 187.25 27.3 191.65 25.25 194.75L32.55 198C34.85 194.7 36.4 189 36.4 183.25Z" fill="#42A3FF" fill-opacity="0.1"/>
    <path d="M28.05 153.377H21.65V137.827H14.25V153.377H8.35V135.727H0.700001L0.700001 163.177H35.7L35.7 135.077H28.05V153.377Z" fill="#42A3FF" fill-opacity="0.1"/>
    <path d="M35.7 129.583V102.983H27.85L27.85 119.683H0.700001L0.700001 129.583H35.7Z" fill="#42A3FF" fill-opacity="0.1"/>
    <path d="M28.05 89.2656H21.65V73.7156H14.25V89.2656H8.35V71.6156H0.700001L0.700001 99.0656H35.7V70.9656H28.05V89.2656Z" fill="#42A3FF" fill-opacity="0.1"/>
    <path d="M36.4 48.0707C36.4 41.6207 34.05 36.4207 29.8 33.0207L24.1 39.3207C26.75 41.5207 28.2 44.2207 28.2 47.5707C28.2 53.3207 24.2 57.3207 18.2 57.3207C12.2 57.3207 8.2 53.3207 8.2 47.5707C8.2 44.2207 9.65 41.5207 12.3 39.3207L6.6 33.0207C2.35 36.4207 0 41.6207 0 48.0707C0 59.1707 7.55 67.3207 18.2 67.3207C28.85 67.3207 36.4 59.1707 36.4 48.0707Z" fill="#42A3FF" fill-opacity="0.1"/>
    <path d="M35.7 21.4496V11.5496H8.55L8.55 0.849609H0.700001L0.700001 32.1996H8.55V21.4496H35.7Z" fill="#42A3FF" fill-opacity="0.1"/>
</svg>
